<svg xmlns="http://www.w3.org/2000/svg" viewBox="0 0 900 380" role="img" aria-label="Arquitetura do projeto">
  <defs>
    <linearGradient id="box" x1="0" y1="0" x2="1" y2="1">
      <stop offset="0%" stop-color="#1e293b"/>
      <stop offset="100%" stop-color="#0f172a"/>
    </linearGradient>
  </defs>
  <rect width="900" height="380" rx="16" fill="#06080f"/>
  <text x="450" y="34" text-anchor="middle" fill="#e8edf5" font-family="Segoe UI,sans-serif" font-size="18" font-weight="600">Arquitetura  TreeofKnowledge</text>

  <!-- layers -->
  <rect x="80" y="60" width="740" height="55" rx="10" fill="url(#box)" stroke="#38bdf8" stroke-width="1.5"/>
  <text x="100" y="92" fill="#38bdf8" font-size="13" font-weight="600">index.html</text>
  <text x="220" y="92" fill="#8899b0" font-size="12">Galeria À Toolbar À Modal À Tooltip</text>

  <rect x="80" y="135" width="220" height="55" rx="10" fill="url(#box)" stroke="#a78bfa"/>
  <text x="100" y="167" fill="#a78bfa" font-size="12" font-weight="600">css/style.css</text>
  <text x="100" y="183" fill="#8899b0" font-size="10">Visual 3D À Cosmos</text>

  <rect x="340" y="135" width="220" height="55" rx="10" fill="url(#box)" stroke="#34d399"/>
  <text x="360" y="167" fill="#34d399" font-size="12" font-weight="600">js/app.js</text>
  <text x="360" y="183" fill="#8899b0" font-size="10">NavegaþÒo À Modal</text>

  <rect x="600" y="135" width="220" height="55" rx="10" fill="url(#box)" stroke="#fbbf24"/>
  <text x="620" y="167" fill="#fbbf24" font-size="12" font-weight="600">js/tree-renderer.js</text>
  <text x="620" y="183" fill="#8899b0" font-size="10">Layout radial SVG</text>

  <rect x="210" y="220" width="480" height="55" rx="10" fill="url(#box)" stroke="#f97316" stroke-width="1.5"/>
  <text x="230" y="252" fill="#f97316" font-size="13" font-weight="600">js/data/projects.js</text>
  <text x="430" y="252" fill="#8899b0" font-size="12">7 projetos À 56 n¾s À c¾digo + implementaþÒo</text>

  <!-- repos -->
  <rect x="80" y="300" width="130" height="45" rx="8" fill="#092E20" stroke="#34d399"/>
  <text x="145" y="328" text-anchor="middle" fill="#fff" font-size="10">Django Î2</text>
  <rect x="230" y="300" width="130" height="45" rx="8" fill="#1a1a2e" stroke="#eab308"/>
  <text x="295" y="328" text-anchor="middle" fill="#fff" font-size="10">JavaScript Î3</text>
  <rect x="380" y="300" width="130" height="45" rx="8" fill="#0c2344" stroke="#06b6d4"/>
  <text x="445" y="328" text-anchor="middle" fill="#fff" font-size="10">Scanner</text>
  <rect x="530" y="300" width="130" height="45" rx="8" fill="#450a0a" stroke="#ef4444"/>
  <text x="595" y="328" text-anchor="middle" fill="#fff" font-size="10">Veyon CIMED</text>
  <rect x="680" y="300" width="140" height="45" rx="8" fill="#1e1b4b" stroke="#a78bfa"/>
  <text x="750" y="328" text-anchor="middle" fill="#fff" font-size="10">GitHub Pages</text>

  <!-- connectors -->
  <line x1="450" y1="115" x2="190" y2="135" stroke="#334155" stroke-width="1.5"/>
  <line x1="450" y1="115" x2="450" y2="135" stroke="#334155" stroke-width="1.5"/>
  <line x1="450" y1="115" x2="710" y2="135" stroke="#334155" stroke-width="1.5"/>
  <line x1="450" y1="190" x2="450" y2="220" stroke="#334155" stroke-width="1.5"/>
  <line x1="450" y1="275" x2="450" y2="300" stroke="#334155" stroke-width="1.5"/>
</svg>
