<svg xmlns="http://www.w3.org/2000/svg" viewBox="0 0 700 300" role="img" aria-label="Camadas dos nós">
  <rect width="700" height="300" rx="14" fill="#06080f"/>
  <text x="350" y="32" text-anchor="middle" fill="#e8edf5" font-size="17" font-weight="600">Hierarquia dos Nós</text>

  <circle cx="350" cy="100" r="42" fill="#fbbf24" stroke="#fde68a" stroke-width="3"/>
  <text x="350" y="96" text-anchor="middle" fill="#1c1917" font-size="11" font-weight="700">ROOT</text>
  <text x="350" y="110" text-anchor="middle" fill="#1c1917" font-size="9">Projeto</text>

  <circle cx="180" cy="190" r="32" fill="#38bdf8"/>
  <text x="180" y="194" text-anchor="middle" fill="#fff" font-size="10" font-weight="600">Módulo</text>
  <circle cx="350" cy="210" r="32" fill="#38bdf8"/>
  <text x="350" y="214" text-anchor="middle" fill="#fff" font-size="10" font-weight="600">Módulo</text>
  <circle cx="520" cy="190" r="32" fill="#38bdf8"/>
  <text x="520" y="194" text-anchor="middle" fill="#fff" font-size="10" font-weight="600">Módulo</text>

  <circle cx="120" cy="260" r="24" fill="#c084fc"/>
  <text x="120" y="264" text-anchor="middle" fill="#fff" font-size="8">Arquivo</text>
  <circle cx="220" cy="270" r="20" fill="#34d399"/>
  <text x="220" y="274" text-anchor="middle" fill="#fff" font-size="8">Funçăo</text>
  <circle cx="320" cy="268" r="24" fill="#c084fc"/>
  <text x="320" y="272" text-anchor="middle" fill="#fff" font-size="8">Arquivo</text>
  <circle cx="480" cy="270" r="20" fill="#34d399"/>
  <text x="480" y="274" text-anchor="middle" fill="#fff" font-size="8">Funçăo</text>
  <circle cx="580" cy="260" r="24" fill="#c084fc"/>
  <text x="580" y="264" text-anchor="middle" fill="#fff" font-size="8">Arquivo</text>

  <line x1="350" y1="142" x2="180" y2="158" stroke="#38bdf8" stroke-width="2" opacity="0.5"/>
  <line x1="350" y1="142" x2="350" y2="178" stroke="#38bdf8" stroke-width="2" opacity="0.5"/>
  <line x1="350" y1="142" x2="520" y2="158" stroke="#38bdf8" stroke-width="2" opacity="0.5"/>
  <line x1="180" y1="222" x2="120" y2="236" stroke="#c084fc" stroke-width="1.5" opacity="0.4"/>
  <line x1="180" y1="222" x2="220" y2="250" stroke="#34d399" stroke-width="1.5" opacity="0.4"/>
  <line x1="520" y1="222" x2="580" y2="236" stroke="#c084fc" stroke-width="1.5" opacity="0.4"/>

  <text x="350" y="295" text-anchor="middle" fill="#8899b0" font-size="11">Ouro = raiz · Azul = módulo · Roxo = arquivo · Verde = funçăo</text>
</svg>
