<svg xmlns="http://www.w3.org/2000/svg" viewBox="0 0 960 540" role="img">
  <rect width="960" height="540" fill="#06080f"/>
  <rect width="960" height="52" fill="#0c1220"/>
  <text x="24" y="34" fill="#e8edf5" font-family="Segoe UI,sans-serif" font-size="16" font-weight="600"><3 ┴rvore do Conhecimento</text>
  <text x="24" y="80" fill="#e8edf5" font-size="22" font-weight="700">Selecione um Projeto</text>
  <text x="24" y="104" fill="#64748b" font-size="13">Cada ßrvore mapeia o cˇdigo que criei</text>
  <!-- cards row 1 -->
  <rect x="24" y="130" width="220" height="140" rx="12" fill="#111827" stroke="#38bdf8" stroke-width="1.5"/>
  <text x="44" y="162" font-size="22">=</text>
  <text x="44" y="188" fill="#e8edf5" font-size="13" font-weight="600">CanonPythonEcommerce</text>
  <text x="44" y="208" fill="#64748b" font-size="11">Django 5 Ě 8 nˇs</text>
  <rect x="260" y="130" width="220" height="140" rx="12" fill="#111827" stroke="#f97316"/>
  <text x="280" y="162" font-size="22"><U</text>
  <text x="280" y="188" fill="#e8edf5" font-size="13" font-weight="600">FoodOnlineDjango</text>
  <text x="260" y="208" fill="#64748b" font-size="11">PostGIS Ě 8 nˇs</text>
  <rect x="496" y="130" width="220" height="140" rx="12" fill="#111827" stroke="#eab308"/>
  <text x="516" y="188" fill="#e8edf5" font-size="13" font-weight="600">JavaScriptDropBox</text>
  <rect x="732" y="130" width="220" height="140" rx="12" fill="#111827" stroke="#22c55e"/>
  <text x="752" y="188" fill="#e8edf5" font-size="13" font-weight="600">JavaScriptUsers</text>
  <!-- cards row 2 -->
  <rect x="24" y="290" width="220" height="140" rx="12" fill="#111827" stroke="#8b5cf6"/>
  <text x="44" y="348" fill="#e8edf5" font-size="13" font-weight="600">JavaScriptRestfulApi</text>
  <rect x="260" y="290" width="220" height="140" rx="12" fill="#111827" stroke="#06b6d4"/>
  <text x="280" y="348" fill="#e8edf5" font-size="13" font-weight="600">Professional-Scanner</text>
  <rect x="496" y="290" width="220" height="140" rx="12" fill="#111827" stroke="#64748b" stroke-dasharray="6 4"/>
  <text x="516" y="348" fill="#64748b" font-size="13">CustomizeVeyon</text>
  <text x="516" y="368" fill="#475569" font-size="11">Em breve</text>
  <!-- search -->
  <rect x="24" y="460" width="400" height="36" rx="18" fill="#111827" stroke="#38bdf8"/>
  <text x="44" y="483" fill="#64748b" font-size="12">= Buscar em toda a ßrvore...</text>
</svg>
